<?xml version="1.0" encoding="UTF-8"?>
<!DOCTYPE svg PUBLIC "-//W3C//DTD SVG 1.1//EN" "http://www.w3.org/Graphics/SVG/1.1/DTD/svg11.dtd">
<!-- Creator: CorelDRAW 2017 -->
<svg xmlns="http://www.w3.org/2000/svg" xml:space="preserve" width="297mm" height="420mm" version="1.1" style="shape-rendering:geometricPrecision; text-rendering:geometricPrecision; image-rendering:optimizeQuality; fill-rule:evenodd; clip-rule:evenodd"
viewBox="0 0 29700 42000"
 xmlns:xlink="http://www.w3.org/1999/xlink">
 <defs>
  <style type="text/css">
   <![CDATA[
    .fil0 {fill:none}
    .fil1 {fill:black}
    .fil2 {fill:black;fill-rule:nonzero}
   ]]>
  </style>
 </defs>
 <g id="Layer_x0020_1">
  <metadata id="CorelCorpID_0Corel-Layer"/>
  <path class="fil0" d="M15415 20006c1110,-4524 4264,-8272 8531,-10139"/>
  <path class="fil1" d="M21104 28391l0 0 2844 0 0 -13503c-980,203 -1932,502 -2844,891l0 -4 0 -4272c-1068,782 -2023,1700 -2844,2727l0 -4701c-1750,2458 -2789,5480 -2844,8496l0 1982 0 20 0 54c-483,-6006 -4158,-10552 -8533,-10552l0 18863 8533 0 0 0 2844 0 2844 0z"/>
  <path class="fil2" d="M12635 33196l122 0c354,0 590,-41 706,-124 116,-83 175,-229 175,-439 0,-227 -62,-386 -187,-479 -125,-93 -356,-139 -693,-139l-122 0 0 1181zm-40 519l0 1844 -628 0 0 -4120 933 0c274,0 486,18 638,54 151,36 279,94 386,177 128,100 226,229 296,386 69,158 104,329 104,518 0,329 -80,588 -239,775 -159,186 -395,299 -706,336l1418 1875 -755 0 -1371 -1844 -75 0zm5016 599l-2132 0c15,250 89,445 223,585 133,140 310,210 532,210 197,0 361,-41 492,-124 132,-83 246,-216 344,-400l513 287c-150,269 -335,468 -557,599 -221,132 -481,197 -779,197 -428,0 -768,-131 -1022,-391 -253,-261 -379,-609 -379,-1044 0,-419 131,-762 393,-1031 261,-269 597,-403 1008,-403 429,0 764,123 1005,369 240,245 360,590 360,1031l0 115zm-634 -409c-24,-191 -97,-337 -219,-437 -122,-101 -289,-151 -500,-151 -201,0 -362,49 -484,146 -121,98 -206,245 -255,442l1459 0zm3781 1654l-611 0 0 -345c-109,153 -236,267 -381,342 -146,75 -312,112 -500,112 -376,0 -674,-129 -890,-387 -217,-257 -326,-611 -326,-1059 0,-425 110,-769 332,-1030 222,-262 511,-393 867,-393 218,0 404,45 559,136 155,90 268,221 339,391l0 -435 611 0 0 2668zm-594 -1343c0,-276 -64,-491 -193,-644 -129,-155 -308,-231 -539,-231 -231,0 -413,80 -545,238 -133,158 -199,379 -199,661 0,283 63,502 191,656 128,155 308,231 541,231 220,0 399,-84 536,-251 138,-167 207,-387 207,-660zm3354 0c0,-276 -64,-491 -193,-644 -129,-155 -308,-231 -539,-231 -231,0 -413,80 -545,238 -133,158 -199,379 -199,661 0,283 63,502 191,656 128,155 308,231 541,231 221,0 400,-84 538,-250 136,-166 206,-386 206,-661zm-17 -3019l611 0 0 4362 -611 0 0 -345c-109,153 -236,267 -381,342 -146,75 -312,112 -500,112 -376,0 -674,-129 -890,-387 -217,-257 -326,-611 -326,-1059 0,-425 110,-769 332,-1030 222,-262 511,-393 867,-393 218,0 404,45 559,136 155,90 268,221 339,391l0 -2129zm1147 3878l507 -277c37,133 107,235 208,304 101,70 231,105 390,105 137,0 245,-32 323,-94 78,-63 116,-149 116,-258 0,-144 -138,-268 -416,-372 -93,-34 -166,-61 -216,-85 -285,-118 -485,-238 -598,-360 -113,-121 -170,-270 -170,-444 0,-238 93,-431 279,-580 187,-148 434,-222 741,-222 206,0 383,38 530,114 147,76 255,183 322,325l-433 299c-32,-85 -87,-152 -167,-202 -80,-50 -172,-75 -277,-75 -116,0 -209,28 -279,83 -70,56 -106,130 -106,222 0,138 158,265 472,379 100,36 177,65 230,87 246,98 422,207 528,330 106,123 158,277 158,460 0,267 -97,475 -290,626 -193,151 -459,227 -799,227 -260,0 -477,-49 -649,-146 -173,-98 -307,-247 -405,-448z"/>
  <path class="fil2" d="M6314 35720l-1280 -2960 -518 2799 -478 0 836 -4281 1441 3406 1441 -3406 836 4281 -478 0 -523 -2799 -1274 2960zm2760 1095l698 -1509 -1010 -2323 509 0 749 1850 793 -1850 484 0 -1728 3832 -496 0z"/>
 </g>
</svg>
