<?xml version="1.0" encoding="UTF-8"?>
<!DOCTYPE svg PUBLIC "-//W3C//DTD SVG 1.1//EN" "http://www.w3.org/Graphics/SVG/1.1/DTD/svg11.dtd">
<!-- Creator: CorelDRAW 2017 -->
<svg xmlns="http://www.w3.org/2000/svg" xml:space="preserve" width="297mm" height="420mm" version="1.1" style="shape-rendering:geometricPrecision; text-rendering:geometricPrecision; image-rendering:optimizeQuality; fill-rule:evenodd; clip-rule:evenodd"
viewBox="0 0 29700 42000"
 xmlns:xlink="http://www.w3.org/1999/xlink">
 <defs>
  <style type="text/css">
   <![CDATA[
    .fil0 {fill:none}
    .fil1 {fill:white}
   ]]>
  </style>
 </defs>
 <g id="Layer_x0020_1">
  <metadata id="CorelCorpID_0Corel-Layer"/>
  <path class="fil0" d="M15415 20006c1110,-4524 4264,-8272 8531,-10139"/>
  <path class="fil1" d="M21104 15779l0 12612 2844 0 0 -13503c-980,203 -1932,502 -2844,891zm-2844 12612l2844 0 0 -12612 0 -4 0 -4272c-1068,782 -2023,1700 -2844,2727l0 -4701c-1750,2458 -2789,5480 -2844,8496l0 1982 0 20 0 54c-483,-6006 -4158,-10552 -8533,-10552l0 18863 8533 0 0 0 2844 0z"/>
 </g>
</svg>
