<?xml version="1.0" encoding="UTF-8"?>
<!DOCTYPE svg PUBLIC "-//W3C//DTD SVG 1.1//EN" "http://www.w3.org/Graphics/SVG/1.1/DTD/svg11.dtd">
<!-- Creator: CorelDRAW 2017 -->
<svg xmlns="http://www.w3.org/2000/svg" xml:space="preserve" width="297mm" height="420mm" version="1.1" style="shape-rendering:geometricPrecision; text-rendering:geometricPrecision; image-rendering:optimizeQuality; fill-rule:evenodd; clip-rule:evenodd"
viewBox="0 0 29700 42000"
 xmlns:xlink="http://www.w3.org/1999/xlink">
 <defs>
  <style type="text/css">
   <![CDATA[
    .fil1 {fill:none}
    .fil4 {fill:#336666}
    .fil3 {fill:#669999}
    .fil2 {fill:#99CCCC}
    .fil0 {fill:#E6E6E6}
   ]]>
  </style>
 </defs>
 <g id="Layer_x0020_1">
  <metadata id="CorelCorpID_0Corel-Layer"/>
  <path class="fil0" d="M6883 9529l11377 0c-1750,2458 -2789,5480 -2844,8496l0 1982c524,-2138 1505,-4102 2844,-5777 821,-1027 1777,-1945 2844,-2727l0 4272c-1004,427 -1958,962 -2844,1596 -1053,752 -2010,1643 -2844,2655l0 54c-483,-6006 -4158,-10552 -8532,-10552zm11377 4701l0 -4701 5689 0 0 18863 0 0 0 -13503c-980,203 -1932,502 -2844,891l0 -4c-1004,427 -1958,962 -2844,1596 -1053,752 -2010,1643 -2844,2655l0 -20c524,-2138 1505,-4102 2844,-5777z"/>
  <path class="fil1" d="M15415 20006c1110,-4524 4264,-8272 8531,-10139"/>
  <path class="fil2" d="M15415 20081c-483,-6006 -4158,-10552 -8533,-10552l0 18863 8533 0 0 -8310z"/>
  <path class="fil2" d="M21104 15779l0 12612 2844 0 0 -13503c-980,203 -1932,502 -2844,891z"/>
  <path class="fil3" d="M18259 17372l0 11019 2844 0 0 -12612 0 -4 0 -4272c-1068,782 -2023,1700 -2844,2727l0 3142z"/>
  <path class="fil4" d="M15415 20081l0 8310 2844 0 0 -11019 0 -3142 0 -4701c-1750,2458 -2789,5480 -2844,8496l0 1982 0 20 0 54z"/>
 </g>
</svg>
