<?xml version="1.0" encoding="UTF-8"?>
<!DOCTYPE svg PUBLIC "-//W3C//DTD SVG 1.1//EN" "http://www.w3.org/Graphics/SVG/1.1/DTD/svg11.dtd">
<!-- Creator: CorelDRAW 2017 -->
<svg xmlns="http://www.w3.org/2000/svg" xml:space="preserve" width="420mm" height="297mm" version="1.1" style="shape-rendering:geometricPrecision; text-rendering:geometricPrecision; image-rendering:optimizeQuality; fill-rule:evenodd; clip-rule:evenodd"
viewBox="0 0 42000 29700"
 xmlns:xlink="http://www.w3.org/1999/xlink">
 <defs>
  <style type="text/css">
   <![CDATA[
    .fil0 {fill:none}
    .fil2 {fill:black}
    .fil1 {fill:black;fill-rule:nonzero}
   ]]>
  </style>
 </defs>
 <g id="Layer_x0020_1">
  <metadata id="CorelCorpID_0Corel-Layer"/>
  <path class="fil0" d="M8268 15439c767,-3125 2946,-5715 5894,-7005"/>
  <path class="fil1" d="M26021 15433l126 0c367,0 611,-43 732,-128 120,-86 181,-237 181,-455 0,-235 -65,-400 -194,-497 -129,-97 -369,-144 -719,-144l-126 0 0 1224zm-42 537l0 1911 -651 0 0 -4270 967 0c284,0 504,19 661,56 156,37 290,98 400,183 132,104 234,237 307,400 72,163 107,341 107,536 0,341 -83,609 -248,803 -165,193 -409,310 -732,348l1469 1943 -782 0 -1421 -1911 -78 0zm5198 621l-2210 0c16,259 93,461 231,606 137,145 321,218 551,218 204,0 374,-43 510,-128 136,-86 255,-224 356,-415l531 298c-155,279 -347,485 -577,621 -229,136 -499,204 -807,204 -444,0 -796,-135 -1059,-405 -262,-271 -393,-631 -393,-1082 0,-434 135,-789 407,-1069 271,-279 619,-418 1045,-418 445,0 792,127 1041,382 249,254 373,611 373,1069l0 119zm-657 -424c-25,-198 -101,-349 -227,-453 -126,-105 -300,-156 -519,-156 -208,0 -375,51 -502,151 -125,102 -214,254 -265,458l1512 0zm3918 1714l-633 0 0 -357c-112,158 -245,277 -395,354 -151,78 -323,116 -519,116 -390,0 -699,-133 -923,-401 -225,-267 -337,-633 -337,-1098 0,-441 114,-797 344,-1068 230,-272 530,-407 899,-407 226,0 419,47 579,141 160,94 278,229 351,405l0 -451 633 0 0 2765zm-615 -1391c0,-286 -67,-509 -200,-668 -133,-160 -319,-240 -558,-240 -240,0 -428,83 -564,247 -137,164 -206,393 -206,685 0,294 66,521 198,680 132,160 319,240 560,240 228,0 413,-87 555,-260 143,-173 215,-401 215,-684zm3476 0c0,-286 -67,-509 -200,-668 -133,-160 -319,-240 -558,-240 -240,0 -428,83 -564,247 -137,164 -206,393 -206,685 0,294 66,521 198,680 132,160 319,240 560,240 229,0 415,-87 557,-259 141,-172 213,-400 213,-685zm-18 -3129l633 0 0 4521 -633 0 0 -357c-112,158 -245,277 -395,354 -151,78 -323,116 -519,116 -390,0 -699,-133 -923,-401 -225,-267 -337,-633 -337,-1098 0,-441 114,-797 344,-1068 230,-272 530,-407 899,-407 226,0 419,47 579,141 160,94 278,229 351,405l0 -2207zm1188 4019l526 -287c39,138 110,244 216,316 105,73 240,108 404,108 142,0 254,-33 334,-98 81,-66 120,-154 120,-268 0,-149 -143,-278 -431,-385 -97,-35 -172,-64 -224,-88 -296,-122 -503,-247 -620,-373 -117,-125 -176,-280 -176,-460 0,-247 97,-447 290,-601 194,-153 450,-230 768,-230 214,0 397,40 549,118 152,79 264,190 333,336l-449 310c-33,-88 -91,-157 -173,-209 -83,-52 -178,-78 -287,-78 -120,0 -217,29 -290,86 -73,58 -109,134 -109,230 0,143 163,275 489,393 103,37 183,68 239,91 255,102 437,215 547,342 109,127 164,287 164,477 0,277 -101,493 -301,649 -200,156 -476,235 -828,235 -270,0 -495,-51 -673,-151 -179,-102 -319,-256 -420,-464z"/>
  <path class="fil1" d="M19470 18049l-1327 -3067 -536 2900 -496 0 866 -4437 1493 3530 1493 -3530 866 4437 -496 0 -542 -2900 -1321 3067zm2860 1135l724 -1564 -1047 -2408 528 0 776 1917 822 -1917 502 0 -1791 3971 -514 0z"/>
  <path class="fil2" d="M12198 12516l0 -2952c-738,540 -1398,1174 -1965,1884l0 -3248c-1209,1698 -1927,3786 -1965,5870l0 1369 0 14 0 37c-334,-4149 -2873,-7290 -5895,-7290l0 13032 5895 0 0 0 1965 0 1965 0 0 0 1965 0 0 -9329c-677,140 -1335,347 -1965,615l0 -2z"/>
 </g>
</svg>
